<svg viewBox="0 0 1050 950" xmlns="http://www.w3.org/2000/svg" font-family="Arial, Helvetica, sans-serif">
  <defs>
    <marker id="arrow" markerWidth="10" markerHeight="10" refX="8" refY="3" orient="auto" markerUnits="strokeWidth">
      <path d="M0,0 L0,6 L9,3 z" fill="#555555"/>
    </marker>
  </defs>

  <rect x="0" y="0" width="1050" height="950" fill="#ffffff"/>

  <text x="525" y="34" font-size="23" font-weight="bold" text-anchor="middle" fill="#1a1a1a">VECM-ARB — System Architecture</text>
  <text x="525" y="55" font-size="12.5" text-anchor="middle" fill="#666666">Six-asset intraday statistical arbitrage — JPM, BAC, C, WFC, GS, MS — Johansen cointegration + convex portfolio optimization</text>

  <rect x="300" y="75" width="450" height="48" rx="8" fill="#f5f5f5" stroke="#757575" stroke-width="1.5"/>
  <text x="525" y="95" font-size="13" font-weight="bold" text-anchor="middle" fill="#333333">Alpaca API — 15-min OHLCV bars</text>
  <text x="525" y="112" font-size="11" text-anchor="middle" fill="#666666">Raw ticks, 2020 - 2025</text>

  <line x1="525" y1="123" x2="290" y2="150" stroke="#555555" stroke-width="2" marker-end="url(#arrow)"/>
  <line x1="525" y1="123" x2="760" y2="150" stroke="#555555" stroke-width="2" marker-end="url(#arrow)"/>

  <rect x="120" y="150" width="340" height="55" rx="8" fill="#f5f5f5" stroke="#757575" stroke-width="1.5"/>
  <text x="290" y="173" font-size="13" font-weight="bold" text-anchor="middle" fill="#333333">clean_rth.py</text>
  <text x="290" y="190" font-size="11" text-anchor="middle" fill="#666666">RTH filter, forward-fill gaps</text>

  <rect x="590" y="150" width="340" height="55" rx="8" fill="#f5f5f5" stroke="#757575" stroke-width="1.5"/>
  <text x="760" y="173" font-size="13" font-weight="bold" text-anchor="middle" fill="#333333">data_prep_intraday.py</text>
  <text x="760" y="190" font-size="11" text-anchor="middle" fill="#666666">split-adjust, rolling dollar ADV</text>

  <line x1="290" y1="205" x2="400" y2="240" stroke="#555555" stroke-width="2" marker-end="url(#arrow)"/>
  <line x1="760" y1="205" x2="650" y2="240" stroke="#555555" stroke-width="2" marker-end="url(#arrow)"/>

  <rect x="260" y="240" width="530" height="46" rx="6" fill="#fafafa" stroke="#9e9e9e" stroke-width="1.5" stroke-dasharray="5,3"/>
  <text x="525" y="268" font-size="12" text-anchor="middle" fill="#444444">sample_prices_intraday.csv  ·  sample_dollar_adv_intraday.csv</text>

  <line x1="380" y1="286" x2="290" y2="315" stroke="#555555" stroke-width="2" marker-end="url(#arrow)"/>
  <line x1="670" y1="286" x2="760" y2="315" stroke="#555555" stroke-width="2" marker-end="url(#arrow)"/>

  <text x="290" y="308" font-size="11" font-style="italic" text-anchor="middle" fill="#888888">live simulation</text>
  <text x="760" y="308" font-size="11" font-style="italic" text-anchor="middle" fill="#888888">batch backtest</text>

  <rect x="120" y="315" width="340" height="55" rx="8" fill="#e3f2fd" stroke="#1565c0" stroke-width="1.5"/>
  <text x="290" y="338" font-size="13" font-weight="bold" text-anchor="middle" fill="#0d47a1">data_intraday.py</text>
  <text x="290" y="355" font-size="11" text-anchor="middle" fill="#1565c0">ZeroMQ PUB — simulated live ticks</text>

  <rect x="590" y="315" width="340" height="55" rx="8" fill="#fff8e1" stroke="#f9a825" stroke-width="1.5"/>
  <text x="760" y="338" font-size="13" font-weight="bold" text-anchor="middle" fill="#a1690b">vecm_main_intraday.py</text>
  <text x="760" y="355" font-size="11" text-anchor="middle" fill="#a1690b">generate_weight_trajectory() — batch loop</text>

  <line x1="290" y1="370" x2="290" y2="395" stroke="#555555" stroke-width="2" marker-end="url(#arrow)"/>
  <line x1="760" y1="370" x2="760" y2="575" stroke="#a1690b" stroke-width="2" stroke-dasharray="2,3" marker-end="url(#arrow)"/>

  <rect x="120" y="395" width="340" height="55" rx="8" fill="#e3f2fd" stroke="#1565c0" stroke-width="1.5"/>
  <text x="290" y="418" font-size="13" font-weight="bold" text-anchor="middle" fill="#0d47a1">broker_intraday.py</text>
  <text x="290" y="435" font-size="11" text-anchor="middle" fill="#1565c0">ZeroMQ SUB — syncs 6 tickers by timestamp</text>

  <line x1="290" y1="450" x2="290" y2="475" stroke="#555555" stroke-width="2" marker-end="url(#arrow)"/>

  <rect x="120" y="475" width="340" height="55" rx="8" fill="#e3f2fd" stroke="#1565c0" stroke-width="1.5"/>
  <text x="290" y="498" font-size="13" font-weight="bold" text-anchor="middle" fill="#0d47a1">strategy_engine_intraday.py</text>
  <text x="290" y="515" font-size="11" text-anchor="middle" fill="#1565c0">VECMStrategyEngine — async tick handler</text>

  <line x1="290" y1="530" x2="450" y2="575" stroke="#555555" stroke-width="2" marker-end="url(#arrow)"/>

  <rect x="100" y="575" width="850" height="55" rx="8" fill="#e8f5e9" stroke="#2e7d32" stroke-width="1.5"/>
  <text x="525" y="597" font-size="13.5" font-weight="bold" text-anchor="middle" fill="#1b5e20">vecm_model_intraday.py</text>
  <text x="525" y="616" font-size="11.5" text-anchor="middle" fill="#2e7d32">Johansen test (6-asset + pairwise) · VECM hedge ratio β / speed-of-adjustment α · RSI · MACD · rolling z-score</text>

  <line x1="525" y1="630" x2="525" y2="655" stroke="#555555" stroke-width="2" marker-end="url(#arrow)"/>

  <rect x="75" y="655" width="900" height="62" rx="8" fill="#fff3e0" stroke="#ef6c00" stroke-width="1.5"/>
  <text x="525" y="679" font-size="13.5" font-weight="bold" text-anchor="middle" fill="#e65100">risk_intraday.py — dynamic_risk_engine</text>
  <text x="525" y="698" font-size="11.5" text-anchor="middle" fill="#ef6c00">convex optimize() (CVXPY) · N-1 rehedge on trading halt / hard-to-borrow · conviction sizing · slot preemption</text>

  <line x1="525" y1="717" x2="525" y2="742" stroke="#555555" stroke-width="2" marker-end="url(#arrow)"/>

  <rect x="75" y="742" width="900" height="62" rx="8" fill="#f3e5f5" stroke="#6a1b9a" stroke-width="1.5"/>
  <text x="525" y="766" font-size="13.5" font-weight="bold" text-anchor="middle" fill="#4a148c">backtest_intraday.py — PortfolioBacktester</text>
  <text x="525" y="785" font-size="11.5" text-anchor="middle" fill="#6a1b9a">square-root market impact (ADV-based) · maker/taker fees · short borrow cost · P&amp;L, drawdown, Sharpe</text>

  <line x1="350" y1="804" x2="300" y2="828" stroke="#555555" stroke-width="2" marker-end="url(#arrow)"/>
  <line x1="700" y1="804" x2="760" y2="828" stroke="#555555" stroke-width="2" marker-end="url(#arrow)"/>

  <rect x="110" y="828" width="380" height="55" rx="8" fill="#e0f2f1" stroke="#00695c" stroke-width="1.5"/>
  <text x="300" y="851" font-size="13" font-weight="bold" text-anchor="middle" fill="#004d40">capacity_analysis_intraday.py</text>
  <text x="300" y="868" font-size="11" text-anchor="middle" fill="#00695c">AUM sweep → capacity ceiling</text>

  <rect x="560" y="828" width="380" height="55" rx="8" fill="#e0f2f1" stroke="#00695c" stroke-width="1.5"/>
  <text x="750" y="851" font-size="13" font-weight="bold" text-anchor="middle" fill="#004d40">report_intraday.py · plot_graph.py</text>
  <text x="750" y="868" font-size="11" text-anchor="middle" fill="#00695c">tear sheet, equity curve, drawdown</text>

  <g font-size="11" fill="#444444">
    <rect x="60" y="905" width="14" height="14" fill="#f5f5f5" stroke="#757575"/>
    <text x="80" y="916">Data</text>
    <rect x="140" y="905" width="14" height="14" fill="#e3f2fd" stroke="#1565c0"/>
    <text x="160" y="916">Live / distributed</text>
    <rect x="280" y="905" width="14" height="14" fill="#fff8e1" stroke="#f9a825"/>
    <text x="300" y="916">Batch</text>
    <rect x="370" y="905" width="14" height="14" fill="#e8f5e9" stroke="#2e7d32"/>
    <text x="390" y="916">Signal math</text>
    <rect x="490" y="905" width="14" height="14" fill="#fff3e0" stroke="#ef6c00"/>
    <text x="510" y="916">Risk / optimization</text>
    <rect x="640" y="905" width="14" height="14" fill="#f3e5f5" stroke="#6a1b9a"/>
    <text x="660" y="916">Backtest / allocator</text>
    <rect x="800" y="905" width="14" height="14" fill="#e0f2f1" stroke="#00695c"/>
    <text x="820" y="916">Analysis output</text>
  </g>
</svg>
